<?xml version="1.0" encoding="UTF-8"?>
<svg width="500" height="100" viewBox="0 0 500 100" version="1.1" xmlns="http://www.w3.org/2000/svg">
    <g>
        <path d="M0,0 L100,0 L100,20 L20,20 L20,40 L90,40 L90,60 L20,60 L20,80 L100,80 L100,100 L0,100 Z" fill="#000000"/>
        <path d="M120,0 L220,0 L220,20 L140,20 L140,40 L210,40 L210,60 L140,60 L140,80 L220,80 L220,100 L120,100 Z" fill="#000000"/>
        <path d="M240,0 L340,0 L340,20 L260,20 L260,40 L330,40 L330,60 L260,60 L260,80 L340,80 L340,100 L240,100 Z" fill="#000000"/>
    </g>
</svg>
